<svg xmlns="http://www.w3.org/2000/svg" viewBox="0 0 32 32" aria-hidden="true" role="presentation" focusable="false" style="display: block; height: 24px; width: 24px; fill: currentcolor;"><path d="m30.78 17.35.11.2a3.53 3.53 0 0 1-1.04 4.4l-.16.12-11.73 7.83a5 5 0 0 1-3.56.77l-.26-.05-11.56-2.47a2 2 0 0 1-1.57-1.8L1 26.2V21a2 2 0 0 1 1.85-2H19.24c.68 0 1.17.32 1.46.81l5.87-3.52a3.07 3.07 0 0 1 4.21 1.06zm-3.07.6-.11.06-6.63 3.98-.08.3a3.83 3.83 0 0 1-3.66 2.7L17 25h-5v-2h5c.39 0 .72-.07 1-.19V21H3v5.2l11.56 2.47a3 3 0 0 0 2.12-.33l.17-.1 11.73-7.83c.6-.4.84-1.17.58-1.83l-.05-.13-.04-.07a1.07 1.07 0 0 0-1.25-.47zM11 1a8 8 0 0 1 7.29 4.7l.13.3h7.5l3 3-3 3h-3.5L20 14.41l-1.84-1.84-.1.2a8 8 0 0 1-6.5 4.21l-.29.02H11a8 8 0 1 1 0-16zm0 2a6 6 0 1 0 5.68 7.95l.07-.23.21-.72h1.45L20 11.58 21.59 10h3.5l1-1-1-1h-8.13l-.2-.71A6 6 0 0 0 11 3zM8 8a1 1 0 1 1 0 2 1 1 0 0 1 0-2z"/></svg>